<svg xmlns="http://www.w3.org/2000/svg" viewBox="0 0 1024 1024"><defs><style>.a{fill:#fff;}.b{fill:none;stroke:#000;stroke-linecap:round;stroke-miterlimit:10;stroke-width:40px;}</style></defs><title>CG_Icon_Visited</title><circle class="a" cx="512" cy="511" r="512"/><path d="M185.22,781.14C257.91,819,339.85,837.49,421,845.08c90.5,8.47,183.47,3,271.83-18.81,42.25-10.44,83.75-25,122.4-45.13,6-3.12,7.77-11.47,4.48-17.09-3.55-6.06-11.09-7.61-17.09-4.48-68.37,35.62-147.61,53.63-225,60.69-87.8,8-177.7,3.11-263.41-18.07-40.71-10.07-79.8-23.53-116.43-42.62-6-3.12-13.57-1.54-17.09,4.48-3.28,5.62-1.52,14,4.48,17.09Z"/><path class="b" d="M372,566l99.64,114a5,5,0,0,0,8-.58L686,360"/><path d="M868.75,258.3c-75.3-47.35-165.82-69-253.4-78.05-100.08-10.41-203.91-4-301,23.44C269.86,216.27,226,233.6,186.67,258.3a12.75,12.75,0,0,0-4.48,17.09c3.33,5.69,11.36,8.09,17.09,4.48C233,258.64,268.18,244,306,232.23A697,697,0,0,1,441.84,205c97.45-9.92,198.05-3.94,292.54,22.74C777.63,240,818,255.9,856.14,279.87c5.71,3.59,13.76,1.21,17.09-4.48a12.7,12.7,0,0,0-4.48-17.09Z"/></svg>