<svg xmlns="http://www.w3.org/2000/svg" viewBox="0 0 1024 1024"><defs><style>.a{fill:none;stroke:#000;stroke-linecap:round;stroke-width:20px;}.a,.b{stroke-miterlimit:10;}.b{stroke:#fff;stroke-width:22.93px;}</style></defs><title>CG_Icon_Achievement</title><path class="a" d="M450.77,42a61.23,61.23,0,1,0,122.45,0"/><path class="a" d="M307.15,90.24A61.23,61.23,0,0,0,424.24,54.39"/><path class="a" d="M185.78,176.32a61.23,61.23,0,1,0,100.6-69.82"/><path class="a" d="M94.37,292.42a61.22,61.22,0,1,0,73.13-98.21"/><path class="a" d="M40.14,430.28A61.23,61.23,0,0,0,77,313.51"/><path class="a" d="M30.78,582.2a61.22,61.22,0,0,0-2.6-122.42"/><path class="a" d="M83.91,725.39A61.22,61.22,0,1,0,44.4,609.49"/><path class="a" d="M173.51,846.65a61.23,61.23,0,0,0-72.11-99"/><path class="a" d="M290.79,939a61.23,61.23,0,0,0-98.26-73.09"/><path class="a" d="M427.11,995.22a61.23,61.23,0,0,0-116-39.3"/><path class="a" d="M573.23,1008.59a61.23,61.23,0,0,0-122.46,0"/><path class="a" d="M712.87,955.92a61.23,61.23,0,0,0-116,39.3"/><path class="a" d="M831.47,865.88A61.23,61.23,0,1,0,733.22,939"/><path class="a" d="M922.6,747.67a61.23,61.23,0,1,0-72.1,99"/><path class="a" d="M979.6,609.48a61.23,61.23,0,0,0-39.51,115.91"/><path class="a" d="M995.82,459.77a61.23,61.23,0,0,0-2.6,122.43"/><path class="a" d="M947,313.51a61.23,61.23,0,0,0,36.87,116.77"/><path class="a" d="M856.49,194.21a61.23,61.23,0,0,0,73.14,98.21"/><path class="a" d="M737.62,106.5a61.23,61.23,0,0,0,100.6,69.82"/><path class="a" d="M599.76,54.39A61.22,61.22,0,1,0,716.84,90.24"/><path class="a" d="M450.77,42a61.23,61.23,0,1,0,122.45,0"/><circle class="b" cx="295.57" cy="330.85" r="28.5"/><circle class="b" cx="728.43" cy="330.85" r="28.5"/><path d="M839.77,517.89c0,181-146.75,327.76-327.77,327.76S184.23,698.91,184.23,517.89"/></svg>