<svg xmlns="http://www.w3.org/2000/svg" viewBox="0 0 1024 1024"><defs><style>.a{fill:#fff;}</style></defs><title>CG_Logo_Wort_WhiteBG_Export</title><circle class="a" cx="514" cy="511" r="512"/><path d="M291.74,721.72c50.15,26.09,106.73,38.89,162.72,44.1,62.78,5.85,127.21,2.16,188.5-13,29.2-7.21,57.84-17.22,84.56-31.12,5.42-2.82.63-11-4.79-8.19-48.86,25.41-104.29,37.89-158.83,42.89-61.67,5.66-124.87,2.15-185.08-12.73-28.42-7-56.29-16.63-82.3-30.16-5.41-2.81-10.21,5.37-4.78,8.19Z"/><path d="M284,662.84c-2.15,7.73-5.8,13.09-13.31,17.17-8.16,4.3-25.34,9.24-44.66,9.24-34.35,0-70.63-20.4-70.63-65.27,0-46.8,39.72-90.17,93.82-90.17,25.12,0,43.37,8.37,52.38,16.74,3.44,3,6.66,6.87,6.66,13.32A16.31,16.31,0,0,1,292,580.18a16.82,16.82,0,0,1-10.3-3.43c-9.88-7.73-18.89-12.67-35-12.67-32.2,0-56.89,27.48-56.89,58.83,0,23.4,17.17,36.06,38.43,36.06a63.2,63.2,0,0,0,26.84-5.79l7.08-24.48H243.68a14.2,14.2,0,0,1-14.39-14.17,14.38,14.38,0,0,1,14.39-14.38h38.86c10.95,0,17,8.16,13.31,21.25Z"/><path d="M455.57,663.48a77.81,77.81,0,0,1,1.08,8.59c0,8.59-7.09,15.89-17,15.89-9.24,0-15-5.58-16.11-13.1L420.15,653H353.59l-17.17,24.69c-4.08,5.8-9.88,10.31-16.75,10.31-8.58,0-13.52-5.16-13.52-12.88a18.92,18.92,0,0,1,3.86-11L393.53,546.9c5.36-7.72,12.66-12.88,23.18-12.88h.65c11.16,0,16.31,6,18,15.68Zm-40.14-39.72-7.73-49.59-33.92,49.59Z"/><path d="M647.5,535.53c11,0,16.75,7.94,13.1,21.47L629.9,671.43C627.11,682,619.81,688,611.22,688c-11,0-17.18-8-13.53-21.47l18.47-69.35-36.93,40.15c-5.58,6.23-11.38,9.88-18,9.88-7.52,0-11.17-3.87-14.17-12l-14.39-37.78-20,74.07C509.89,682,502.8,688,494.21,688c-10.95,0-17-8-13.31-21.47l30.7-114.22c2.79-10.52,8.81-16.74,18.9-16.74h1.93c8.59,0,13.52,4.93,16.74,13.52l22.76,60.12,53-63.34c5.8-6.65,11.38-10.3,19.54-10.3Z"/><path d="M681,686.67c-11,0-17-7.94-13.31-21.47l30.06-112.28c2.79-10.52,9.87-16.53,18.46-16.53h80.72a14.84,14.84,0,0,1,14.82,14.81,14.67,14.67,0,0,1-14.82,14.6H727.15L719,596.5h52.17A14.66,14.66,0,0,1,786,611.1a14.47,14.47,0,0,1-14.81,14.38H711.05l-8.59,31.78h63.12a14.83,14.83,0,0,1,14.81,14.81,14.66,14.66,0,0,1-14.81,14.6Z"/><path d="M110.63,519.55c-41,0-70.85-25.33-70.85-65.48,0-47.87,40.79-89.95,91.46-89.95,22.33,0,37.57,7.3,49.59,18.46,3.44,3.22,6.87,7.73,6.87,14a16.91,16.91,0,0,1-17,17.17c-4.72,0-8.58-1.29-11.59-4.72-7.94-8.59-16.1-14.39-32-14.39-27.48,0-53,26.2-53,58.18,0,21.69,15.25,36.29,36.71,36.29,12.46,0,18.25-3.22,28.34-9.66,3-1.94,7.09-3.87,11.17-3.87,8.59,0,15,7.09,15,15.67a16,16,0,0,1-5.8,12.24C148.2,513.11,129.74,519.55,110.63,519.55Z"/><path d="M191.35,453c0-44.87,36.5-88.88,90.39-88.88,41.43,0,68.7,28.77,68.7,66.55,0,44.87-36.5,88.88-90.39,88.88C218.62,519.55,191.35,490.78,191.35,453Zm124.74-20.18c0-22.33-13.53-38.22-38.22-38.22-31.56,0-52.17,30.27-52.17,56.25,0,22.33,13.53,38.22,38.22,38.22C295.48,489.07,316.09,458.8,316.09,432.82Z"/><path d="M395.3,501.73c-2.79,10.52-9.88,16.54-18.46,16.54-10.95,0-17-7.95-13.31-21.47L394,383.22c2.79-10.52,9.88-16.53,18.47-16.53h40.79c22.33,0,37.57,4.94,47.66,15,7.51,7.52,11.59,18,11.59,30.27,0,14.39-4.94,26.84-13.74,35.64-8.37,8.37-18,13.53-32.85,17.61l18.47,27.48c2.79,4.08,3.65,7.3,3.65,10.52,0,10.09-8.59,15-16.1,15-9.45,0-15.46-4.51-19.33-10.95l-23.83-38.43H404.1Zm46.16-62c12.88,0,23.83-3.22,30.27-9.66A21,21,0,0,0,478,414.78c0-5.15-1.51-8.8-4.73-12-4.08-4.08-11.37-6.22-21.9-6.22H423.64l-11.59,43.15Z"/><path d="M650.56,381.94c2.79-10.52,9.66-16.53,18.25-16.53,11,0,16.75,7.94,13.1,21.46L650.78,502.38c-2.58,9.66-7.95,15.46-17.82,15.46h-.65c-10.52,0-15-4.3-18.89-12.46l-40.15-86.95L551,501.73c-2.79,10.52-9.66,16.54-18.25,16.54-11,0-16.75-7.95-13.1-21.47l30.7-114.43c2.79-10.52,9.66-16.54,19.54-16.54h1.5c9.66,0,15.67,4.94,19.32,13.1l38.22,83.3Z"/><path d="M702.08,517c-11,0-17-8-13.31-21.47l30.06-112.29c2.79-10.52,9.88-16.53,18.46-16.53H818a14.84,14.84,0,0,1,14.81,14.82A14.66,14.66,0,0,1,818,396.11H748.24l-8.16,30.7h52.17a14.67,14.67,0,0,1,14.82,14.6,14.49,14.49,0,0,1-14.82,14.38H732.14l-8.59,31.77h63.12a14.85,14.85,0,0,1,14.82,14.82A14.67,14.67,0,0,1,786.67,517Z"/><path d="M862.88,501.73c-2.79,10.52-9.87,16.54-18.46,16.54-10.95,0-17-7.95-13.31-21.47l30.48-113.58c2.8-10.52,9.88-16.53,18.47-16.53h40.79c22.33,0,37.57,4.94,47.66,15,7.52,7.52,11.59,18,11.59,30.27,0,14.39-4.93,26.84-13.74,35.64-8.37,8.37-18,13.53-32.84,17.61L952,492.72c2.79,4.08,3.65,7.3,3.65,10.52,0,10.09-8.59,15-16.1,15-9.45,0-15.46-4.51-19.32-10.95l-23.83-38.43H871.69Zm46.16-62c12.88,0,23.83-3.22,30.27-9.66a21,21,0,0,0,6.23-15.25c0-5.15-1.5-8.8-4.72-12-4.08-4.08-11.38-6.22-21.9-6.22h-27.7l-11.59,43.15Z"/><path d="M763.71,332.72c-51.81-32.53-114-47.54-174.21-53.88-69.51-7.31-141.57-3-209,16-31,8.71-61.54,20.73-88.91,37.92-5.16,3.23-.4,11.44,4.79,8.19,50.84-31.92,112-46.73,171.19-52.77,68.17-6.95,138.6-2.75,204.71,15.81,30.31,8.5,59.92,20.18,86.65,37,5.18,3.25,10-5,4.78-8.19Z"/></svg>