<svg xmlns="http://www.w3.org/2000/svg" viewBox="0 0 1024 1024">
    <defs>
        <style>.a{fill:#fff;}</style>
    </defs>
    <title>CG_Logo_Bild_WhiteBG_Export</title>
    <circle class="a" cx="512" cy="511" r="512"/>
    <path d="M185.22,781.14C257.91,819,339.85,837.49,421,845.08c90.5,8.47,183.47,3,271.83-18.81,42.25-10.44,83.75-25,122.4-45.13,6-3.12,7.77-11.47,4.48-17.09-3.55-6.06-11.09-7.61-17.09-4.48-68.37,35.62-147.61,53.63-225,60.69-87.8,8-177.7,3.11-263.41-18.07-40.71-10.07-79.8-23.53-116.43-42.62-6-3.12-13.57-1.54-17.09,4.48-3.28,5.62-1.52,14,4.48,17.09Z"/>
    <path d="M297.39,710.64c-108,0-186.55-66.71-186.55-172.43,0-126.06,107.41-236.87,240.82-236.87,58.79,0,98.93,19.22,130.59,48.62,9,8.48,18.09,20.35,18.09,36.75,0,24.87-19.22,45.22-44.66,45.22-12.44,0-22.61-3.39-30.53-12.43-20.91-22.62-42.4-37.88-84.23-37.88-72.36,0-139.63,69-139.63,153.2,0,57.1,40.14,95.54,96.67,95.54,32.79,0,48.05-8.48,74.62-25.44,7.91-5.09,18.65-10.17,29.39-10.17,22.62,0,39.58,18.65,39.58,41.27,0,14.13-6.79,24.87-15.27,32.22C396.32,693.68,347.71,710.64,297.39,710.64Z"/>
    <path d="M848,641.1c-5.65,20.35-15.26,34.49-35,45.23-21.48,11.31-66.7,24.31-117.58,24.31-90.45,0-186-53.71-186-171.86,0-123.24,104.58-237.44,247-237.44,66.14,0,114.19,22.05,137.94,44.1,9,7.91,17.52,18.09,17.52,35.05a42.94,42.94,0,0,1-43,43,44.22,44.22,0,0,1-27.14-9c-26-20.35-49.74-33.36-92.14-33.36-84.8,0-149.81,72.37-149.81,154.9,0,61.62,45.23,95,101.19,95a166,166,0,0,0,70.67-15.27l18.65-64.44H741.73c-20.91,0-37.87-16.4-37.87-37.31A37.88,37.88,0,0,1,741.73,476H844.05c28.83,0,44.66,21.48,35.05,56Z"/>
    <path d="M868.75,258.3c-75.3-47.35-165.82-69-253.4-78.05-100.08-10.41-203.91-4-301,23.44C269.86,216.27,226,233.6,186.67,258.3a12.75,12.75,0,0,0-4.48,17.09c3.33,5.69,11.36,8.09,17.09,4.48C233,258.64,268.18,244,306,232.23A697,697,0,0,1,441.84,205c97.45-9.92,198.05-3.94,292.54,22.74C777.63,240,818,255.9,856.14,279.87c5.71,3.59,13.76,1.21,17.09-4.48a12.7,12.7,0,0,0-4.48-17.09Z"/>
</svg>