<?xml version="1.0" encoding="UTF-8" standalone="no" ?>
<!DOCTYPE svg PUBLIC "-//W3C//DTD SVG 1.1//EN" "http://www.w3.org/Graphics/SVG/1.1/DTD/svg11.dtd">
<svg xmlns="http://www.w3.org/2000/svg" xmlns:xlink="http://www.w3.org/1999/xlink" version="1.1" width="32" height="32" viewBox="250 182.7179487179487 32 32" xml:space="preserve">
<desc>Created with Fabric.js 4.6.0</desc>
<defs>
</defs>
<g transform="matrix(0.4 0 0 0.4 266 198.72)" id="uYNC8wEFrfdJSSD6VENJr"  >
<g style="" vector-effect="non-scaling-stroke"   >
		<g transform="matrix(1 0 0 1 0 0)" id="0Uv3cuqeNNOZ77PnmgN0g"  >
<path style="stroke: none; stroke-width: 1; stroke-dasharray: none; stroke-linecap: butt; stroke-dashoffset: 0; stroke-linejoin: miter; stroke-miterlimit: 4; fill: rgb(179,181,179); fill-rule: nonzero; opacity: 1;" vector-effect="non-scaling-stroke"  transform=" translate(-40, -40)" d="M 40 0 C 17.9 0 0 17.9 0 40 C 0 62.1 17.9 80 40 80 C 62.1 80 80 62.1 80 40 C 80 17.9 62.1 0 40 0 z" stroke-linecap="round" />
</g>
		<g transform="matrix(1 0 0 1 0 0)" id="c_hjiO0U2kFaTBsbwZihl"  >
<path style="stroke: none; stroke-width: 1; stroke-dasharray: none; stroke-linecap: butt; stroke-dashoffset: 0; stroke-linejoin: miter; stroke-miterlimit: 4; fill: rgb(255,255,255); fill-rule: nonzero; opacity: 1;" vector-effect="non-scaling-stroke"  transform=" translate(-40, -40)" d="M 40 6.5 C 21.5 6.5 6.5 21.5 6.5 40 C 6.5 58.5 21.5 73.5 40 73.5 C 58.5 73.5 73.5 58.5 73.5 40 C 73.5 21.5 58.5 6.5 40 6.5 z" stroke-linecap="round" />
</g>
		<g transform="matrix(1 0 0 1 0 6.4)" id="ToSZskbQHv8Wu3jMWMfS6"  >
<path style="stroke: none; stroke-width: 1; stroke-dasharray: none; stroke-linecap: butt; stroke-dashoffset: 0; stroke-linejoin: miter; stroke-miterlimit: 4; fill: rgb(179,181,179); fill-rule: nonzero; opacity: 1;" vector-effect="non-scaling-stroke"  transform=" translate(-40, -46.4)" d="M 60.3 52.7 C 56.8 59.2 48.9 63.4 40 63.4 C 31.1 63.4 23.2 59.199999999999996 19.7 52.7 C 19.099999999999998 51.6 19.5 50.300000000000004 20.599999999999998 49.800000000000004 C 21.7 49.2 22.999999999999996 49.6 23.499999999999996 50.7 C 26.199999999999996 55.800000000000004 32.699999999999996 59.2 40 59.2 C 47.3 59.2 53.8 55.900000000000006 56.5 50.7 C 57.1 49.6 58.4 49.2 59.4 49.800000000000004 C 60.5 50.3 60.9 51.6 60.3 52.7 z M 19.2 34.3 C 19.2 31.599999999999998 21.4 29.4 24.1 29.4 C 26.800000000000004 29.4 29 31.599999999999998 29 34.3 C 29 37 26.8 39.199999999999996 24.1 39.199999999999996 C 21.400000000000002 39.199999999999996 19.2 37 19.2 34.3 z M 55.9 29.4 C 53.199999999999996 29.4 51 31.599999999999998 51 34.3 C 51 37 53.2 39.199999999999996 55.9 39.199999999999996 C 58.599999999999994 39.199999999999996 60.8 36.99999999999999 60.8 34.3 C 60.8 31.6 58.6 29.4 55.9 29.4 z" stroke-linecap="round" />
</g>
</g>
</g>
</svg>