<svg xmlns="http://www.w3.org/2000/svg" viewBox="0 0 1024 1024"><title>220602_Logo</title><path d="M130.91,825.46c85.8,44.74,182.61,66.46,278.42,75.32,106.41,9.84,215.69,3.37,319.53-22.4,49.45-12.28,98-29.33,143.25-52.92,7-3.66,9.14-13.49,5.27-20.1-4.17-7.13-13-9-20.1-5.27-38.2,19.91-76.81,34-119.79,45.68a845,845,0,0,1-145.6,25.79c-103.74,9.39-208.67,3.49-309.13-21.33-48.75-12-94-27.73-137-50.14-7-3.67-16-1.81-20.1,5.27-3.87,6.61-1.8,16.42,5.27,20.1Z"/><path d="M262.87,742.52c-127,0-219.47-78.48-219.47-202.85C43.4,391.35,169.76,261,326.72,261c69.17,0,116.39,22.61,153.64,57.2,10.64,10,21.28,23.94,21.28,43.23,0,29.26-22.61,53.2-52.54,53.2-14.64,0-26.61-4-35.92-14.63-24.61-26.6-49.88-44.56-99.1-44.56-85.13,0-164.27,81.14-164.27,180.24,0,67.17,47.22,112.4,113.73,112.4,38.57,0,56.53-10,87.79-29.93,9.31-6,21.95-12,34.58-12,26.61,0,46.56,21.94,46.56,48.55,0,16.63-8,29.26-18,37.91C379.26,722.57,322.07,742.52,262.87,742.52Z"/><path d="M910.67,660.71c-6.65,23.95-18,40.57-41.23,53.21-25.28,13.3-78.48,28.6-138.34,28.6-106.41,0-218.81-63.18-218.81-202.19,0-145,123-279.33,290.64-279.33,77.81,0,134.35,25.94,162.28,51.87,10.64,9.32,20.62,21.29,20.62,41.24a50.53,50.53,0,0,1-50.55,50.55A52,52,0,0,1,903.36,394c-30.6-23.94-58.53-39.24-108.41-39.24-99.77,0-176.25,85.14-176.25,182.24,0,72.49,53.21,111.73,119,111.73a195.43,195.43,0,0,0,83.14-18L842.83,555H785.64c-24.61,0-44.56-19.28-44.56-43.89a44.56,44.56,0,0,1,44.56-44.56H906c33.92,0,52.54,25.27,41.23,65.84Z"/><path d="M935.06,210.35c-40.84-25.7-86-44.53-132-58.83-53.95-16.78-109.78-27.13-165.93-33a1001.17,1001.17,0,0,0-184.27-2.07c-57.16,4.62-114.17,13.92-169.41,29.48-47.46,13.36-94.22,31.31-137,56q-7,4.05-13.85,8.37c-6.71,4.22-9.37,13.1-5.27,20.1,3.91,6.7,13.36,9.52,20.1,5.28,40.62-25.56,80.48-42.08,125.73-56.1,52.27-16.2,106.88-26.59,160-32C548.36,136,665.45,143,776.42,174.28q20.9,5.9,41.4,13,9.18,3.21,18.26,6.7,4.8,1.85,9.57,3.77c1.35.54,2.7,1.09,4,1.65l2.68,1.11.47.2a490.7,490.7,0,0,1,67.39,35c6.72,4.22,16.19,1.41,20.1-5.28,4.13-7,1.47-15.86-5.27-20.1Z"/></svg>